<?xml version="1.0" standalone="no"?><!DOCTYPE svg PUBLIC "-//W3C//DTD SVG 1.1//EN" "http://www.w3.org/Graphics/SVG/1.1/DTD/svg11.dtd"><svg t="1683700770171" class="icon" viewBox="0 0 1024 1024" version="1.1" xmlns="http://www.w3.org/2000/svg" p-id="2703" xmlns:xlink="http://www.w3.org/1999/xlink" width="200" height="200"><path d="M911.36 962.56c0 33.93024-27.50976 61.44-61.44 61.44H174.08c-33.93024 0-61.44-27.50976-61.44-61.44V61.44c0-33.93024 27.50976-61.44 61.44-61.44h481.28l256 256v706.56z" fill="#6D54B0" p-id="2704"></path><path d="M655.36 0l256 256h-215.04a40.96 40.96 0 0 1-40.96-40.96V0z" fill="#DDD0FE" p-id="2705"></path><path d="M328.4992 773.0176c23.6544 0 43.008-6.0928 57.344-17.92 14.336-12.1856 24.0128-30.8224 28.3136-55.552h-37.632c-3.584 27.9552-19.3536 42.2912-47.6672 42.2912-16.4864 0-28.672-6.0928-36.9152-17.5616-8.96-11.8272-13.2608-28.3136-13.2608-49.1008s4.3008-37.2736 13.6192-48.7424c8.96-11.8272 21.1456-17.5616 36.9152-17.5616 12.9024 0 23.296 2.8672 31.1808 8.96 7.8848 5.7344 12.9024 15.0528 15.4112 27.5968h37.632c-3.584-22.9376-12.9024-40.1408-27.2384-51.6096-14.336-10.752-33.3312-16.128-56.9856-16.128-28.672 0-50.8928 9.6768-67.0208 29.0304-15.0528 17.92-22.5792 40.8576-22.5792 68.8128 0 28.672 7.5264 51.6096 22.9376 69.5296 15.7696 18.6368 37.632 27.9552 65.9456 27.9552z m189.952 0c54.8352 0 82.432-19.712 82.432-58.7776 0-16.4864-7.5264-29.3888-22.2208-38.7072-10.0352-6.4512-25.8048-12.544-46.9504-17.5616-18.6368-4.6592-30.8224-8.2432-37.2736-11.1104-10.0352-4.6592-15.0528-10.0352-15.0528-16.4864 0-7.168 3.2256-12.9024 10.0352-16.4864 5.7344-3.584 14.336-5.0176 25.8048-5.0176 12.9024 0 22.9376 2.1504 29.3888 6.4512 6.0928 3.9424 10.3936 10.752 13.2608 20.7872h36.9152c-4.3008-39.0656-30.8224-58.4192-78.848-58.4192-22.2208 0-40.4992 4.6592-54.4768 14.336-13.9776 9.3184-20.7872 22.5792-20.7872 39.424 0 15.7696 7.168 28.3136 21.504 37.2736 8.6016 5.7344 24.0128 11.1104 45.8752 16.128 18.9952 4.3008 31.5392 7.8848 37.2736 10.752 10.752 5.0176 16.4864 12.1856 16.4864 21.1456 0 16.4864-15.0528 25.088-44.4416 25.088-14.336 0-24.3712-2.5088-30.8224-7.168-6.4512-5.0176-11.1104-13.9776-13.2608-26.5216h-37.2736c4.3008 43.008 31.5392 64.8704 82.432 64.8704z m186.368 0c54.8352 0 82.432-19.712 82.432-58.7776 0-16.4864-7.5264-29.3888-22.2208-38.7072-10.0352-6.4512-25.8048-12.544-46.9504-17.5616-18.6368-4.6592-30.8224-8.2432-37.2736-11.1104-10.0352-4.6592-15.0528-10.0352-15.0528-16.4864 0-7.168 3.2256-12.9024 10.0352-16.4864 5.7344-3.584 14.336-5.0176 25.8048-5.0176 12.9024 0 22.9376 2.1504 29.3888 6.4512 6.0928 3.9424 10.3936 10.752 13.2608 20.7872h36.9152c-4.3008-39.0656-30.8224-58.4192-78.848-58.4192-22.2208 0-40.4992 4.6592-54.4768 14.336-13.9776 9.3184-20.7872 22.5792-20.7872 39.424 0 15.7696 7.168 28.3136 21.504 37.2736 8.6016 5.7344 24.0128 11.1104 45.8752 16.128 18.9952 4.3008 31.5392 7.8848 37.2736 10.752 10.752 5.0176 16.4864 12.1856 16.4864 21.1456 0 16.4864-15.0528 25.088-44.4416 25.088-14.336 0-24.3712-2.5088-30.8224-7.168-6.4512-5.0176-11.1104-13.9776-13.2608-26.5216h-37.2736c4.3008 43.008 31.5392 64.8704 82.432 64.8704z" fill="#FFFFFF" p-id="2706"></path></svg>