<?xml version="1.0" standalone="no"?><!DOCTYPE svg PUBLIC "-//W3C//DTD SVG 1.1//EN" "http://www.w3.org/Graphics/SVG/1.1/DTD/svg11.dtd"><svg t="1683700761881" class="icon" viewBox="0 0 1024 1024" version="1.1" xmlns="http://www.w3.org/2000/svg" p-id="2430" xmlns:xlink="http://www.w3.org/1999/xlink" width="200" height="200"><path d="M730.31168 489.77664h-20.8v56.95232h20.61312c8.8064 0 13.68064-0.75008 16.30464-3.75808 2.9952-3.38432 2.9952-9.5872 2.9952-13.53472v-19.7376c0-5.45024 0.93952-11.2768-3.18464-15.60064-5.05856-5.2608-14.24128-4.32128-15.92832-4.32128z" fill="#2B9EFF" p-id="2431"></path><path d="M838.81216 402.74688C835.06432 240.52992 702.95296 110.08 540.29568 110.08c-129.67424 0-239.86176 82.8928-281.27488 198.6816-1.50016 2.82112-3.18464 5.63968-4.6848 8.64768C133.28128 332.82048 43.52 430.75328 43.52 552.18176c0 129.13408 105.50272 234.95936 234.24 234.95936h507.45856c109.248 0 195.26144-86.08768 195.26144-195.86304 0-88.15616-61.64992-164.6592-141.66784-188.5312z m-473.35168 252.62848h-42.35264v-88.9088h-38.78912v88.9088H241.96864v-194.17088h42.35008v76.12672h38.78912v-76.12672h42.35264v194.17088zM510.3104 489.216h-42.7264v166.16192h-42.7264V489.216H382.5152v-28.0064h127.9872l-0.18688 28.0064z m139.4176 0h-42.72384v166.16192h-42.7264V489.216H521.9328v-28.0064h127.98976v28.0064h-0.18688z m141.29664 41.35168c0 18.23232-0.93696 26.88-8.24576 34.39872-6.93248 7.1424-16.6784 9.5872-37.4784 9.5872h-35.9808v80.82432h-42.7264v-194.17088h85.4528c1.31072 0 6.93248 0 11.4304 0.75264 13.68064 2.4448 20.23936 9.96352 22.48704 13.7216 4.87424 8.2688 4.87424 20.67712 4.87424 29.13536l0.18688 25.7536z" fill="#008AC2" p-id="2432"></path></svg>