<?xml version="1.0" standalone="no"?><!DOCTYPE svg PUBLIC "-//W3C//DTD SVG 1.1//EN" "http://www.w3.org/Graphics/SVG/1.1/DTD/svg11.dtd"><svg t="1683699516262" class="icon" viewBox="0 0 1024 1024" version="1.1" xmlns="http://www.w3.org/2000/svg" p-id="1722" xmlns:xlink="http://www.w3.org/1999/xlink" width="200" height="200"><path d="M340.906965 843.595083l579.280903-0.409313 101.407415-176.516439v-38.066153L914.662137 806.449885H340.906965z" fill="#562E0C" p-id="1723"></path><path d="M1021.595283 628.603178H340.906965v177.846707h573.755172z" fill="#8B572A" p-id="1724"></path><path d="M561.936245 444.616768c-40.624363 19.237734-66.308784 59.145798-66.308784 102.737684v81.248726h229.829519V366.949535l-163.520735 77.667233z" fill="#5B5B5F" p-id="1725"></path><path d="M955.286499 547.354452c0-43.591886-25.684421-83.49995-66.308783-102.737684l-163.520736-77.667233v261.755971h229.829519v-81.351054z" fill="#434142" p-id="1726"></path><path d="M632.235835 400.001599s-43.182572 31.005496-43.182572 71.015889l33.052063 11.153792-33.052063 15.553912s43.489557 105.807535 136.403717 130.877986v-24.456481l-84.625562-204.247426-8.595583 0.102328z" fill="#494949" p-id="1727"></path><path d="M818.678125 400.001599s43.182572 31.005496 43.182573 71.015889l-33.052064 11.153792 33.052064 15.553912s-43.489557 105.807535-136.403718 130.877986v-24.456481l84.625562-204.247426 8.595583 0.102328z" fill="#333333" p-id="1728"></path><path d="M640.831418 407.369242s4.40012 121.566104 84.625562 204.247426v-185.21435l-84.625562-19.033076z" fill="#FFFFFF" p-id="1729"></path><path d="M810.082542 407.369242s-4.40012 121.566104-84.625562 204.247426v-185.21435l84.625562-19.033076z" fill="#EBEBED" p-id="1730"></path><path d="M684.730289 409.620466l28.754272 56.792245-18.930749 106.216848c8.80024 13.405016 19.033077 26.503048 30.903168 38.782453V409.620466h-40.726691z" fill="#5BB3FD" p-id="1731"></path><path d="M766.183671 409.620466h-40.726691v201.791546c12.177076-12.58639 22.61457-25.991406 31.517138-39.805736l-19.544719-105.193565 28.754272-56.792245z" fill="#47A1E3" p-id="1732"></path><path d="M827.069052 602.816429l34.280004-32.949736 34.177675 32.949736z" fill="#FFFFFF" p-id="1733"></path><path d="M86.723294 687.237334C35.149795 712.717098 2.404717 765.416209 2.404717 823.129409v107.547117h292.249825V584.49965L86.723294 687.237334z" fill="#4C4C4C" p-id="1734"></path><path d="M586.495053 823.129409c0-57.713201-32.745078-110.412311-84.318577-135.892075L294.245228 584.49965v346.176876h292.249825V823.129409z" fill="#434142" p-id="1735"></path><path d="M442.92835 650.296792c-48.708304-49.731588-68.048366-60.476067-151.855301-60.476067S187.926052 600.462876 139.217748 650.296792c-23.740182 24.251824 67.946038 60.373738 151.855301 60.476067 83.909264 0 175.595483-36.224243 151.855301-60.476067z" fill="#383838" p-id="1736"></path><path d="M291.073049 327.246128v347.916458c92.504847 0 167.511542-77.87189 167.511542-173.958229s-75.006695-173.958229-167.511542-173.958229z" fill="#2F2313" p-id="1737"></path><path d="M384.294194 319.673828s112.254222-10.335165 74.188068 181.530529h-3.376836c-4.707105 0-8.902568-2.762866-11.051464-6.753672-8.18627-15.860897-27.62866-54.745678-29.061257-70.299591 0 0-64.67153 2.762866-124.021985-6.958329V289.998601c33.666034 2.455881 66.104127 11.563106 93.323474 29.675227z" fill="#2F2313" p-id="1738"></path><path d="M276.030778 289.179974c6.651344 0 13.20036 0.204657 19.749376 0.716299v127.194164c-31.619466-5.218747-61.806336-14.018987-79.7138-28.754272 0 0-60.066753 47.173379-75.722994 103.351654-1.534926 5.62806-6.446687 9.516538-12.074748 9.516538l-3.17218-42.261617c-6.856001-91.379235 62.624963-169.865094 150.934346-169.762766z" fill="#3B2B15" p-id="1739"></path><path d="M128.575597 501.204357c0 96.08634 75.006695 173.958229 167.511542 173.958229v-347.916458c-92.504847 0-167.511542 77.87189-167.511542 173.958229z" fill="#3B2B15" p-id="1740"></path><path d="M601.741981 142.54342v147.762166c0 81.555711 55.359648 147.762166 123.612671 147.762167s123.612671-66.104127 123.612671-147.762167V142.54342H601.741981" fill="#E6CCBD" p-id="1741"></path><path d="M869.739982 275.570301v-89.025682c0-26.810033-16.270211-49.117618-38.066154-55.359648 6.958329-18.316778-3.172179-42.875587-24.558809-42.875588H675.009094c-51.266513 0-92.91416 47.480364-92.91416 106.012192v81.351054c14.223643 11.870091 23.944839 33.666034 23.944838 58.941141v-82.067352c0-30.186869 21.488958-54.745678 47.992006-54.745679h28.754272c12.688718 0 25.172779-2.660538 37.04287-7.879284l30.084541-14.4283 61.294693 24.763465c19.954032 6.651344 34.586989 27.424003 34.586989 52.289798V334.61377c0-25.377436 9.721195-47.173379 23.944839-59.043469" fill="#3D4247" p-id="1742"></path></svg>