<?xml version="1.0" standalone="no"?><!DOCTYPE svg PUBLIC "-//W3C//DTD SVG 1.1//EN" "http://www.w3.org/Graphics/SVG/1.1/DTD/svg11.dtd"><svg t="1683700759223" class="icon" viewBox="0 0 1024 1024" version="1.1" xmlns="http://www.w3.org/2000/svg" p-id="2291" xmlns:xlink="http://www.w3.org/1999/xlink" width="200" height="200"><path d="M149.845333 0C105.096533 0 69.905067 36.795733 69.905067 81.578667v860.842666c0 44.782933 35.191467 81.578667 80.008533 81.578667h732.7744a81.92 81.92 0 0 0 81.6128-81.578667V324.778667L661.845333 0h-512z" fill="#F7622C" p-id="2292"></path><path d="M964.266667 326.417067v15.9744h-204.8s-100.795733-20.821333-99.191467-108.782934c0 0 4.778667 92.7744 97.621333 92.7744h206.370134z" fill="#F54921" p-id="2293"></path><path d="M661.845333 0v233.608533c0 25.6 17.6128 92.7744 97.621334 92.7744h204.8L661.845333 0z" fill="#FFFFFF" opacity=".5" p-id="2294"></path><path d="M370.688 812.817067h-4.8128l-121.617067-54.408534c-7.9872-3.208533-12.8-11.195733-12.8-20.821333a20.821333 20.821333 0 0 1 12.8-19.182933l121.617067-54.408534c1.604267 0 3.208533-1.604267 4.778667-1.604266a14.336 14.336 0 0 1 14.404266 14.404266 16.7936 16.7936 0 0 1-7.9872 14.404267l-111.991466 47.991467 111.957333 46.421333c4.846933 3.1744 8.021333 7.9872 8.021333 14.404267 0 7.9872-6.382933 12.8-14.404266 12.8z m135.9872-176.0256l-70.417067 212.821333c-3.208533 6.382933-7.9872 9.557333-14.404266 9.557333-9.557333 0-15.9744-6.382933-15.9744-14.370133 0-1.604267 1.570133-3.208533 1.570133-4.778667L477.866667 628.770133c3.208533-6.417067 7.9872-11.195733 14.404266-11.195733 9.591467 0 14.404267 6.382933 14.404267 14.404267v4.778666z m163.191467 121.617066l-121.617067 54.3744h-4.778667c-8.021333 0-14.404267-4.778667-14.404266-12.8 0-6.382933 3.208533-11.195733 7.9872-14.370133l113.629866-46.421333-113.629866-47.991467a16.7936 16.7936 0 0 1-7.9872-14.404267 14.336 14.336 0 0 1 14.404266-14.404266c1.604267 0 3.208533 1.604267 4.778667 1.604266l121.617067 54.408534a20.821333 20.821333 0 0 1 12.8 19.182933c0 9.6256-4.778667 17.6128-12.8 20.821333z" fill="#FFFFFF" p-id="2295"></path></svg>